<svg width="91" height="90" viewBox="0 0 91 90" fill="none" xmlns="http://www.w3.org/2000/svg">
<path d="M4.26074 4.30078H86.8459V86.1227H4.26074V4.30078Z" fill="url(#paint0_radial)"/>
<path d="M4.26086 4.30238H86.846V86.1243H4.26086V4.30238ZM0.507812 89.9462H90.6171V0.480469H0.507812V89.9462ZM64.2556 43.6056C66.1682 43.6056 66.8538 43.6056 67.0343 43.5321C67.0343 43.2565 67.1064 43.0727 67.1064 42.889C67.1064 40.831 66.1321 37.0091 62.2347 37.0091C58.626 37.0091 57.0923 40.2246 56.7134 43.6239H64.2556V43.6056ZM56.6412 48.8423C56.7134 54.0056 59.1131 57.4784 64.8329 57.4784C67.0523 57.4784 68.9649 57.166 70.9497 56.3024C71.2203 56.1921 71.4008 56.2289 71.4008 56.578V61.3554C71.4008 61.7413 71.2925 61.925 71.0219 62.1271C69.0371 63.1194 66.5471 63.5787 63.4797 63.5787C53.5738 63.5787 49.8568 56.1186 49.8568 47.8317C49.8568 38.8098 54.4399 31.4232 62.5053 31.4232C70.6971 31.4232 73.548 38.4239 73.548 44.1201C73.548 45.9575 73.4397 47.4459 73.2412 48.1808C73.1691 48.4932 73.0608 48.6034 72.754 48.6769C71.9962 48.7872 69.7949 48.9526 66.493 48.9526H56.6592V48.8423H56.6412ZM36.5046 44.9469C35.4581 40.7024 32.8959 31.46 31.9577 26.9766H31.8855C31.0916 31.4416 29.0346 39.0119 27.5009 44.9469H36.5046ZM25.9672 51.1391L23.0081 62.5681C22.9359 62.8805 22.8276 62.9907 22.4487 62.9907H16.9094C16.5305 62.9907 16.4583 62.8805 16.5305 62.4211L27.1942 24.4593C27.3746 23.7794 27.5009 23.2282 27.5731 21.3172C27.5731 21.0416 27.6813 20.9314 27.8798 20.9314H35.7648C36.0355 20.9314 36.1438 21.0049 36.2159 21.3172L48.1427 62.4946C48.2149 62.807 48.1427 62.9907 47.8359 62.9907H41.647C41.3403 62.9907 41.1599 62.8805 41.0877 62.6049L38.0022 51.1391H25.9672Z" fill="#D8A1FF"/>
<defs>
<radialGradient id="paint0_radial" cx="0" cy="0" r="1" gradientUnits="userSpaceOnUse" gradientTransform="translate(31.4851 22.6451) scale(62.7674 61.8852)">
<stop stop-color="#442F55" stop-opacity="0.98"/>
<stop offset="1" stop-color="#12002C"/>
</radialGradient>
</defs>
</svg>
