<svg width="91" height="90" viewBox="0 0 91 90" fill="none" xmlns="http://www.w3.org/2000/svg">
<path d="M4.60107 4.30078H87.1862V86.1227H4.60107V4.30078Z" fill="url(#paint0_radial)"/>
<path d="M4.60119 4.30238H87.1863V86.1243H4.60119V4.30238ZM0.848145 89.9462H90.9574V0.480469H0.848145V89.9462ZM59.8684 32.3787C59.8684 32.0663 59.9767 31.9193 60.3195 31.9193H66.2198C66.5265 31.9193 66.6708 32.0296 66.6708 32.3787V62.5497C66.6708 62.8621 66.5987 63.0091 66.2198 63.0091H60.3917C60.0128 63.0091 59.9045 62.8254 59.9045 62.513V32.3787H59.8684ZM59.4534 23.6875C59.4534 21.2437 61.1495 19.7921 63.2787 19.7921C65.5702 19.7921 67.1039 21.354 67.1039 23.6875C67.1039 26.2049 65.498 27.5829 63.2065 27.5829C61.0413 27.6013 59.4534 26.2232 59.4534 23.6875ZM42.5647 44.9469C41.5182 40.7024 39.0282 31.46 38.0899 26.9766H38.0178C37.2238 31.4416 35.2391 39.0119 33.6693 44.9469H42.5647ZM32.1356 51.1391L29.1764 62.6049C29.1043 62.9172 28.996 62.9907 28.6171 62.9907H23.0958C22.7169 62.9907 22.6447 62.8805 22.7169 62.4211L33.3806 24.4225C33.561 23.7427 33.6873 23.1179 33.7595 21.2437C33.7595 20.9681 33.8678 20.8579 34.0662 20.8579H41.9512C42.2219 20.8579 42.3302 20.9314 42.4023 21.2437L54.3471 62.4946C54.4193 62.807 54.3471 62.9907 54.0404 62.9907H47.8154C47.5086 62.9907 47.3282 62.9172 47.256 62.6416L44.1706 51.1391H32.1356Z" fill="#FF7F18"/>
<defs>
<radialGradient id="paint0_radial" cx="0" cy="0" r="1" gradientUnits="userSpaceOnUse" gradientTransform="translate(31.8275 22.6614) scale(62.7674 61.8852)">
<stop stop-color="#423325" stop-opacity="0.98"/>
<stop offset="1" stop-color="#1C0A00"/>
</radialGradient>
</defs>
</svg>
