<svg width="21" height="21" viewBox="0 0 21 21" fill="none" xmlns="http://www.w3.org/2000/svg">
<path d="M9.49429 1.51011C9.79716 0.580548 11.1122 0.580548 11.4151 1.51011L13.1838 6.93871C13.3193 7.35449 13.7069 7.63588 14.1442 7.63588H19.8621C20.8412 7.63588 21.2476 8.88943 20.4547 9.46393L15.8337 12.812C15.4787 13.0692 15.3301 13.526 15.4659 13.9429L17.2321 19.3637C17.5352 20.2938 16.4713 21.0685 15.6791 20.4945L11.0473 17.1386C10.6937 16.8825 10.2156 16.8825 9.86204 17.1386L5.23025 20.4945C4.43808 21.0685 3.37416 20.2938 3.67721 19.3637L5.44342 13.9429C5.57923 13.526 5.43067 13.0692 5.07566 12.812L0.454648 9.46393C-0.338276 8.88943 0.0681121 7.63588 1.04728 7.63588H6.76513C7.20243 7.63588 7.59006 7.35449 7.72553 6.93871L9.49429 1.51011Z" fill="#070707"/>
</svg>
