<svg width="60" height="91" viewBox="0 0 60 91" fill="none" xmlns="http://www.w3.org/2000/svg">
<g clip-path="url(#clip0)">
<path d="M15.1164 90.3665C23.236 90.3665 29.8219 83.6598 29.8219 75.3913V60.416H15.1164C6.99678 60.416 0.410889 67.1227 0.410889 75.3913C0.410889 83.6598 6.99678 90.3665 15.1164 90.3665Z" fill="#0ACF83"/>
<path d="M0.410889 45.4225C0.410889 37.154 6.99678 30.4473 15.1164 30.4473H29.8219V60.4161H15.1164C6.99678 60.3977 0.410889 53.691 0.410889 45.4225Z" fill="#A259FF"/>
<path d="M0.411133 15.4538C0.411133 7.18522 6.99703 0.478516 15.1166 0.478516H29.8221V30.4474H15.1166C6.99703 30.4474 0.411133 23.7223 0.411133 15.4538Z" fill="#F24E1E"/>
<path d="M29.8401 0.478516H44.5456C52.6652 0.478516 59.2511 7.18522 59.2511 15.4538C59.2511 23.7223 52.6652 30.429 44.5456 30.429H29.8401V0.478516Z" fill="#FF7262"/>
<path d="M59.2511 45.4225C59.2511 53.691 52.6652 60.3977 44.5456 60.3977C36.426 60.3977 29.8401 53.691 29.8401 45.4225C29.8401 37.154 36.426 30.4473 44.5456 30.4473C52.6652 30.4473 59.2511 37.154 59.2511 45.4225Z" fill="#1ABCFE"/>
</g>
<defs>
<clipPath id="clip0">
<rect width="58.84" height="89.8882" fill="white" transform="translate(0.410645 0.480469)"/>
</clipPath>
</defs>
</svg>
