<svg width="91" height="90" viewBox="0 0 91 90" fill="none" xmlns="http://www.w3.org/2000/svg">
<path d="M3.93896 4.26758H86.4281V85.9377H3.93896V4.26758Z" fill="url(#paint0_radial)"/>
<path d="M3.93904 4.26661H86.4281V85.9367H3.93904V4.26661ZM0.188721 89.7541H90.1604V0.449219H0.188721V89.7541ZM60.861 37.0998C57.904 37.0998 56.8943 38.6231 56.8943 39.8894C56.8943 41.2659 57.5614 42.2202 61.5461 44.3125C67.4241 47.2122 69.2632 50.0018 69.2632 54.0762C69.2632 60.1877 64.6834 63.4728 58.499 63.4728C55.2355 63.4728 52.4228 62.7938 50.8181 61.8394C50.5476 61.7293 50.5116 61.5274 50.5116 61.2338V55.5994C50.5116 55.214 50.6919 55.1039 50.9623 55.2874C53.3243 56.8474 56.0288 57.5448 58.499 57.5448C61.456 57.5448 62.7001 56.2785 62.7001 54.5717C62.7001 53.1952 61.8346 51.9839 58.0483 49.9835C52.7293 47.3957 50.5116 44.7713 50.5116 40.3666C50.5116 35.448 54.2979 31.3554 60.861 31.3554C64.0884 31.3554 66.3422 31.8509 67.5683 32.4198C67.8748 32.6034 67.9469 32.9154 67.9469 33.1907V38.4212C67.9469 38.7332 67.7666 38.9167 67.388 38.8066C65.7292 37.7422 63.2951 37.0998 60.861 37.0998ZM28.6227 41.6329C29.4881 41.7064 30.1552 41.7064 31.6518 41.7064C36.0331 41.7064 40.1621 40.1464 40.1621 34.0716C40.1621 29.2264 37.2051 26.7855 32.2107 26.7855C30.7142 26.7855 29.2898 26.8589 28.6046 26.8956L28.6227 41.6329ZM21.9334 21.3714C21.9334 21.0961 22.4563 20.9126 22.7628 20.9126C25.1608 20.8025 28.7308 20.7291 32.4271 20.7291C42.8126 20.7291 46.8694 26.5286 46.8694 33.9248C46.8694 43.6151 39.9638 47.7811 31.4895 47.7811C30.0651 47.7811 29.5783 47.7077 28.5686 47.7077V62.3533C28.5686 62.6653 28.4604 62.8121 28.1178 62.8121H22.3841C22.0776 62.8121 21.9334 62.702 21.9334 62.3533V21.3714Z" fill="#31C5F0"/>
<defs>
<radialGradient id="paint0_radial" cx="0" cy="0" r="1" gradientUnits="userSpaceOnUse" gradientTransform="translate(31.1148 22.5903) scale(62.6825 61.7733)">
<stop stop-color="#34364E" stop-opacity="0.98"/>
<stop offset="1" stop-color="#0C0824"/>
</radialGradient>
</defs>
</svg>
