<svg width="40" height="41" viewBox="0 0 40 41" fill="none" xmlns="http://www.w3.org/2000/svg">
<path d="M11.875 0.844828H12.3801V0.835121H28.4453C34.47 0.835121 39.4017 5.87009 39.4017 12.0592V29.0024C39.4017 35.1918 34.4697 40.2265 28.4548 40.2265H11.875C5.84895 40.2265 0.909096 35.1999 0.909096 29.0218V12.0689C0.909096 5.88035 5.84976 0.844828 11.875 0.844828ZM2.93768 12.0776V12.0786V29.0315C2.93768 34.068 6.90485 38.1392 11.875 38.1392H28.4548C33.4074 38.1392 37.3731 34.0664 37.3731 29.0121V12.0689C37.3731 7.01422 33.4071 2.94181 28.4453 2.94181H11.875C6.91272 2.94181 2.9477 7.01455 2.93768 12.0776ZM31.3053 8.10744C31.3053 7.51156 31.7639 7.05895 32.3196 7.05895C32.8752 7.05895 33.3339 7.51156 33.3339 8.10744C33.3339 8.70332 32.8752 9.15592 32.3196 9.15592C31.7639 9.15592 31.3053 8.70332 31.3053 8.10744ZM10.0346 20.5357C10.0346 14.8229 14.6049 10.166 20.1649 10.166C25.7249 10.166 30.2952 14.8229 30.2952 20.5357C30.2952 26.2485 25.7249 30.9053 20.1649 30.9053C14.6049 30.9053 10.0346 26.2485 10.0346 20.5357ZM28.2666 20.5357C28.2666 15.9564 24.6705 12.263 20.1649 12.263C15.6593 12.263 12.0632 15.9564 12.0632 20.5357C12.0632 25.115 15.6593 28.8084 20.1649 28.8084C24.6705 28.8084 28.2666 25.115 28.2666 20.5357Z" fill="#070707" stroke="#070707" stroke-width="1.01009"/>
</svg>
