<svg width="41" height="41" viewBox="0 0 41 41" fill="none" xmlns="http://www.w3.org/2000/svg">
<path d="M31.5963 7.52057L31.9052 7.13245L31.5227 6.81666C28.5779 4.38523 24.8379 2.93284 20.7462 2.93284C19.3127 2.93284 17.9229 3.13366 16.607 3.46266L15.8725 3.64628L16.3242 4.2539C17.7288 6.14364 19.7466 8.9977 22.1631 13.4677L22.3718 13.8537L22.7832 13.7009C27.3562 12.0029 30.0964 9.40553 31.5963 7.52057ZM14.1216 4.73498L13.8741 4.40894L13.5038 4.58357C8.96236 6.72579 5.52163 10.8175 4.16341 15.8143L3.99566 16.4315L4.63489 16.4516C7.13575 16.5303 13.1137 16.4124 19.7374 14.6379L20.3621 14.4706L20.0483 13.9051C17.4793 9.27513 15.3187 6.31201 14.1216 4.73498ZM33.7716 9.03692L33.38 8.57163L32.9945 9.04206C31.3218 11.0836 28.4175 13.7355 23.8193 15.5348L23.3079 15.7349L23.55 16.2277C24.5414 18.246 25.5032 20.3968 26.3795 22.7195L26.5239 23.1022L26.9283 23.0404C30.2547 22.5325 33.3296 22.5325 35.6522 22.7144C36.217 22.7613 36.5814 22.8139 37.0055 22.8751C37.0948 22.888 37.1868 22.9013 37.2839 22.915L37.8011 22.988L37.8566 22.4686C37.9248 21.8317 37.964 21.192 37.964 20.5308C37.964 16.1334 36.3707 12.1249 33.7716 9.03692ZM21.502 16.7411L21.3151 16.3662L20.9121 16.4807C13.121 18.6942 6.25778 18.6266 4.12039 18.5403L3.63369 18.5206L3.59645 19.0063L3.59384 19.0402C3.55691 19.5216 3.519 20.0156 3.519 20.5405C3.519 25.8271 5.80621 30.5462 9.41317 33.7754L9.78973 34.1125L10.1266 33.7357C11.0307 32.7242 12.2434 31.4361 13.7178 30.0914L13.7198 30.0896C16.4937 27.5324 20.0628 24.8266 23.9506 23.646L24.4727 23.4874L24.2744 22.9791C23.4041 20.7491 22.4672 18.6762 21.502 16.7411ZM31.0873 24.7169L31.0819 24.7172C30.0605 24.7665 28.9733 24.8649 27.8678 25.0124L27.267 25.0926L27.4542 25.669C28.3873 28.5416 29.1591 31.5845 29.6577 34.7499L29.7832 35.5468L30.4452 35.0858C33.6634 32.8448 36.0978 29.5145 37.2318 25.6052L37.3987 25.0298L36.8034 24.9626C35.3286 24.7961 33.4586 24.6282 31.0873 24.7169ZM25.3742 25.9142L25.2191 25.4563L24.7548 25.5914C21.3394 26.5851 17.767 29.1619 15.0595 31.647C13.7512 32.8376 12.6945 33.9678 11.8465 34.8935L11.4297 35.3486L11.9582 35.6672C14.5295 37.217 17.5152 38.1288 20.7367 38.1288C23.1545 38.1288 25.435 37.618 27.5177 36.718L27.8692 36.5661L27.8178 36.1866C27.3287 32.5767 26.4658 29.1362 25.3742 25.9142ZM1.49992 20.5308C1.49992 9.66914 10.1536 0.835121 20.7462 0.835121C31.3389 0.835121 39.9925 9.66914 39.9925 20.5308C39.9925 31.3925 31.3389 40.2265 20.7462 40.2265C10.1536 40.2265 1.49992 31.3925 1.49992 20.5308Z" fill="#070707" stroke="#070707" stroke-width="1.01009"/>
</svg>
